#!OML:ASF E:/inclinewalkrobotboard/Project1/Captureday1/Session1/subject1.ASF
:FULLY-SPECIFIED
:DEGREES
238
root 0 0 0 1.7098220354204205 -10.740856137925665 0.750215766474487
lowerback 0.05707146070672242 -1.549667471191904 -2.497859474316231
upperback -0.6627131193648672 -2.032128699469096 1.9375190068358266
thorax -0.5277507488230625 -0.9963481394602193 3.3516230462762584
lowerneck -24.44369064493816 -1.5320175090135948 -7.505683711890936
upperneck 28.5081842368284 0.5117946414017671 1.6804249304672527
head 13.73151040964288 -0.5681752422390616 2.1561472197600113
rclavicle -2.3354477517343787E-15 9.358941795176348E-16
rhumerus -32.53007647652182 -4.306417944840127 -80.704592902013
rradius 30.39611538034689
rwrist 19.842603153861404
rhand -17.485973911622228 8.781166145768758
rfingers 7.1250199999999415
rthumb 8.76375570557609 -21.041033435563694
lclavicle -2.0736001115849263E-16 5.42134888514145E-16
lhumerus -21.698644872954816 -5.164188560264576 91.96091930547426
lradius 64.93904232630743
lwrist 1.6742027298278894
lhand -29.05693883731746 20.832276964339435
lfingers 7.125020000000025
lthumb -2.4167353409159693 50.817330489827384
rfemur 1.8566381147869127 8.679685890767512 38.6822227943522
rtibia 22.695679482498758
rfoot -22.64245698626026 -8.449228103598806
rtoes 8.541265913244988
lfemur -24.05400861893745 2.8037307899765964 -13.239634988621125
ltibia 54.69084961816435
lfoot -3.56264683931739 -3.335624851851537
ltoes -6.508019387382899
239
root 0 0 0 1.7261140926066305 -10.705437498141748 0.7622423444752069
lowerback 0.041386238149093924 -1.5383709898472147 -2.5247000378879876
upperback -0.6616720005002196 -2.0173480104106045 1.9217514457755578
thorax -0.5193627880037547 -0.9881547002246197 3.3517266790292766
lowerneck -24.437782413540205 -1.5763328590932275 -7.551816697220041
upperneck 28.383899868759823 0.42216693431144137 1.8003566242477118
head 13.670626760991812 -0.5888005346631179 2.1897869210451373
rclavicle -2.353849306822764E-15 1.0052151088689445E-15
rhumerus -31.577402017589975 -2.787032213161148 -81.67802570619384
rradius 31.252242661025534
rwrist 19.129548468902996
rhand -17.84265928106121 8.90255869254963
rfingers 7.125019999999941
rthumb 8.419951349653186 -20.93573303762947
lclavicle 4.2915354027349727E-16 3.465763799551068E-16
lhumerus -21.279206944679977 -4.571734974227096 91.70030414953092
lradius 64.79990016885891
lwrist 1.6609174608025872
lhand -28.985660098221643 20.762359261441517
lfingers 7.125020000000026
lthumb -2.345210247126399 50.74530059417725
rfemur 4.31853859936467 8.94113579267326 38.40033452929701
rtibia 20.80052433736263
rfoot -23.528639905793995 -8.627560241337964
rtoes 5.013412283287801
lfemur -26.972788263767608 1.9266447459891394 -12.215177200542163
ltibia 48.78301089958768
lfoot -5.429041236868633 -0.9655551043495603
ltoes -5.870888354845935
240
root 0 0 0 1.7503704381086498 -10.687624622738495 0.780053570246284
lowerback 0.007378753004637639 -1.5322624450847109 -2.552836595088416
upperback -0.6567207996466569 -2.00972011245612 1.8929043163828847
thorax -0.49735474166119176 -0.9837917109051932 3.3390215194045307
lowerneck -24.449427337382712 -1.6258495837230784 -7.605739486559246
upperneck 28.287303976698077 0.3303393079048077 1.9154351433536079
head 13.624439513632138 -0.6111445797299043 2.2220912568437425
rclavicle -8.073097056684242E-15 1.4044485296105887E-15
rhumerus -30.88554485594783 -0.7330449939117756 -82.22827817896413
rradius 31.860348646991614
rwrist 18.482072032827208
rhand -18.370935706816017 9.045610840108015
rfingers 7.125019999999946
rthumb 7.912779587885653 -20.831085640262188
lclavicle 5.658979402236257E-16 -1.8618245906313814E-16
lhumerus -20.75626021407598 -3.707891362630396 91.26114942136013
lradius 64.63204917459836
lwrist 1.6993943255420958
lhand -28.79128743242557 20.626588023662205
lfingers 7.125020000000027
lthumb -2.1524633509093087 50.610609385748
rfemur 9.322548710349542 8.917927239426595 37.36773316795321
rtibia 21.45435201477848
rfoot -22.961188488081778 -7.547273192342994
rtoes -0.8113954885422858
lfemur -31.855828146970094 -2.0284978913122442 -9.482051583646868
ltibia 29.86041827142568
lfoot -6.635748449652333 4.117011010969364
ltoes -4.351029149385583
241
root 0 0 0 1.7535937209674486 -10.702036761364923 0.7827964521405933
lowerback -0.005549502861425859 -1.5340799426012786 -2.560416465548837
upperback -0.6581969062496633 -2.0118659780251793 1.8707909611124491
thorax -0.49190284151934294 -0.9844080113313597 3.320682352641659
lowerneck -24.412523611534954 -1.6239486774805547 -7.616330901027169
upperneck 28.384163838340953 0.33316559781560284 1.9062287051468603
head 13.650332586064522 -0.6125861704676633 2.220616873343251
rclavicle -9.601343884612374E-15 1.5217491598850402E-15
rhumerus -30.830468597726906 -0.16045867813150938 -82.15179819928412
rradius 31.85342850301362
rwrist 18.348578214224233
rhand -18.524910861992012 9.124044868738341
rfingers 7.125019999999945
rthumb 7.764745132941028 -20.76463808615272
lclavicle 4.540438042345928E-16 -2.1380788894419936E-16
lhumerus -20.53012994987753 -3.0674899108946865 91.03438709781659
lradius 64.49378212439015
lwrist 1.6412986366012317
lhand -28.714223366500374 20.55206281121504
lfingers 7.125020000000028
lthumb -2.0733594372908906 50.53360037658767
rfemur 13.12888459070948 8.276661276956483 35.901449543568845
rtibia 26.920198090391715
rfoot -20.47501354970544 -5.685097151692425
rtoes -5.19883479775666
lfemur -31.088492731695947 -4.696680965296718 -8.943982415696212
ltibia 21.152265172955072
lfoot -5.102392693097104 4.309203337739391
ltoes -3.696359400022323
242
root 0 0 0 1.7496421701675053 -10.722842785320479 0.7828614103095626
lowerback -0.014188975536305382 -1.5380868354702857 -2.56692541611251
upperback -0.6641558283781507 -2.0163374751148204 1.8484610537904438
thorax -0.49192010060840785 -0.9859013422902715 3.300927928211639
lowerneck -24.370130468306357 -1.6139454405138227 -7.618614667782965
upperneck 28.523410964133923 0.35058570443838977 1.8751072000139102
head 13.69172562240491 -0.6114263630301536 2.21284106929895
rclavicle -1.0840552203594498E-14 1.2676741172197315E-15
rhumerus -30.8755708596128 0.11237096037096972 -81.95439282623842
rradius 31.728002051379004
rwrist 18.297435232391724
rhand -18.58873572611074 9.197071225416526
rfingers 7.125019999999941
rthumb 7.702667183282941 -20.69064194713779
lclavicle -1.5940171723533359E-15 -4.761996414127578E-18
lhumerus -20.26439463730148 -2.363798332538589 90.85208207528113
lradius 64.2784751300929
lwrist 1.5163984106515094
lhand -28.717324380441934 20.48538841439699
lfingers 7.125020000000028
lthumb -2.0706192043716785 50.459195319299965
rfemur 14.11792822589243 7.11175482532777 34.163270792958336
rtibia 33.70810901354966
rfoot -15.871332082704717 -3.3795672468883757
rtoes -7.219459760843422
lfemur -29.895369535389793 -5.24973834359669 -9.60277182054787
ltibia 19.699210052101687
lfoot -3.9503682506533444 3.5611702725982366
ltoes -2.674466427264294
243
root 0 0 0 1.7384831123910476 -10.758815415227147 0.7898644829868585
lowerback -0.03416913141190281 -1.5458913823663405 -2.5736327260973813
upperback -0.681147041669342 -2.0261646158776467 1.8256843698152867
thorax -0.4958608342223356 -0.9895702788794003 3.279938321450481
lowerneck -24.405378463399273 -1.6157727011749703 -7.614175793963538
upperneck 28.61240598629596 0.3596654558607212 1.8402898616980188
head 13.73219481847076 -0.6140425918762374 2.2013241912978527
rclavicle -1.1363859891310135E-14 1.1735553420565956E-15
rhumerus -30.965491229434765 0.17733594091310856 -81.75391460317401
rradius 31.58591635903202
rwrist 18.31596206751113
rhand -18.594112889521025 9.23093074566273
rfingers 7.125019999999938
rthumb 7.696783561485708 -20.651424101471225
lclavicle -3.140008488320433E-15 3.1682466582382257E-16
lhumerus -19.806924875156653 -1.6704199538177074 90.64412520593022
lradius 64.07104970100768
lwrist 1.406907652826669
lhand -28.760491376785716 20.492335396986938
lfingers 7.125020000000028
lthumb -2.1095304031916786 50.45781062845488
rfemur 10.638440293645532 5.277741212943406 30.464956213372165
rtibia 43.26894996823177
rfoot -7.158181895931141 -0.767624173244283
rtoes -5.366310939296375
lfemur -28.651837983240913 -4.937395966074113 -11.060289271189085
ltibia 21.869806425301263
lfoot -2.809876393404383 1.9460253841305262
ltoes -0.5280348628265532
244
root 0 0 0 1.7308834780454825 -10.818069299019443 0.8105053607562203
lowerback -0.07987018543258029 -1.5628251544042253 -2.5901154849461263
upperback -0.701375036776267 -2.0488624221018275 1.793322679163225
thorax -0.488043021054002 -0.9994670131877822 3.254758840998371
lowerneck -24.524389659521546 -1.6307370293555903 -7.621652395512167
upperneck 28.616181840251876 0.3594955936757216 1.8190032281432293
head 13.760720715999001 -0.6171767723058924 2.19269824954326
rclavicle -1.1357541099403385E-14 1.013774166499598E-15
rhumerus -31.12080719655113 -0.1716444016716867 -81.57767949348003
rradius 31.432954041277572
rwrist 18.435467181103594
rhand -18.49898183234714 9.203973726139896
rfingers 7.125019999999936
rthumb 7.787281651454789 -20.666375086403757
lclavicle -3.3809258467880442E-15 5.121013337255035E-16
lhumerus -19.3182209480257 -1.0178412560520735 90.46943965282348
lradius 63.90355051577676
lwrist 1.2570648958289614
lhand -28.845446445702013 20.483281081847327
lfingers 7.125020000000027
lthumb -2.189619050753574 50.437923495210185
rfemur 2.365447173587784 3.5108147501222824 25.787363078904278
rtibia 55.73065348445161
rfoot 4.234495709181189 1.0669147973765996
rtoes 1.7748056876419565
lfemur -25.57144209825913 -4.062115248943714 -14.398048176969365
ltibia 28.32524844191444
lfoot -1.5581848510973142 -1.8581069117139073
ltoes 3.448558982038451
245
root 0 0 0 1.84212383408775 -10.900538237860504 0.7407407897968855
lowerback -0.02463405814560593 -1.6363751911148252 -2.573769430320903
upperback -0.5004115149297402 -2.148164791080018 1.7131145086769377
thorax -0.31329365406094756 -1.059095109299211 3.1632469659691047
lowerneck -23.563848944097582 -1.2689231642245828 -7.6729775658228325
upperneck 29.850045951474023 0.8769805211298619 1.4331286218105406
head 14.038752367232451 -0.44735353884839013 2.1383227526506925
rclavicle -2.0390146301971188E-14 -8.531008588935408E-17
rhumerus -31.576779273881428 -1.999824020406359 -81.45215373670672
rradius 31.187990315650723
rwrist 18.946718846808373
rhand -18.091101919513292 9.020066967872436
rfingers 7.125019999999939
rthumb 8.18032760469597 -20.830192253773546
lclavicle -1.2433904632622948E-14 2.012247879031674E-15
lhumerus -16.33247653056783 0.9055666017171049 89.32487972911937
lradius 63.68713903466833
lwrist 0.48633144729727507
lhand -29.539069811686133 20.281058134906612
lfingers 7.125020000000011
lthumb -2.8270890991688002 50.17218211554578
rfemur -9.59358559853748 1.7263290147131736 22.909158589691216
rtibia 67.4923309005428
rfoot 6.384120367429695 -3.0028799130410015
rtoes 11.508400704448466
lfemur -18.552304977452266 -2.9197577150326754 -20.601750017406612
ltibia 32.4203295412481
lfoot -3.2780693252465634 -4.156241464812429
ltoes 9.145872418151585
